<svg width="432" height="432" viewBox="0 0 432 432" fill="none" xmlns="http://www.w3.org/2000/svg">
    <path
        d="M363.254 287.481C363.426 284.916 363.513 282.327 363.513 279.718C363.513 216.302 312.104 164.893 248.688 164.893C185.271 164.893 133.862 216.302 133.862 279.718C133.862 343.135 185.271 394.544 248.688 394.544C263.961 394.544 278.538 391.562 291.868 386.148C284.581 387.951 276.96 388.908 269.116 388.908C216.983 388.908 174.72 346.645 174.72 294.512C174.72 242.378 216.983 200.116 269.116 200.116C318.885 200.116 359.658 238.631 363.254 287.481Z"
        fill="#D3CDCD" fill-opacity="0.2" />
    <path
        d="M363.141 277.444C363.387 273.772 363.512 270.068 363.512 266.334C363.512 176.072 290.341 102.901 200.08 102.901C109.819 102.901 36.648 176.072 36.648 266.334C36.648 356.595 109.819 429.766 200.08 429.766C222.919 429.766 244.664 425.081 264.406 416.62C253.113 419.679 241.23 421.312 228.963 421.312C154.653 421.312 94.4127 361.388 94.4127 287.467C94.4127 213.546 154.653 153.622 228.963 153.622C299.883 153.622 357.988 208.205 363.141 277.444Z"
        fill="#D3CDCD" fill-opacity="0.2" />
    <path
        d="M108.978 402.26C211.666 461.178 342.732 425.915 401.965 323.321C461.296 220.557 426.086 89.1524 323.321 29.8213C220.557 -29.5099 89.1524 5.69986 29.8213 108.464C-29.41 211.056 5.58159 342.191 107.946 401.664C19.0586 349.972 -11.3155 236.07 40.1347 146.956C91.6847 57.6689 205.856 27.0768 295.143 78.6268C384.43 130.177 415.022 244.348 363.472 333.635C312.021 422.751 198.189 453.397 108.978 402.26Z"
        fill="#D3CDCD" fill-opacity="0.2" />
    <path
        d="M363.254 287.481C363.426 284.916 363.513 282.327 363.513 279.718C363.513 216.302 312.104 164.893 248.688 164.893C185.271 164.893 133.862 216.302 133.862 279.718C133.862 343.135 185.271 394.544 248.688 394.544C263.961 394.544 278.538 391.562 291.868 386.148C284.581 387.951 276.96 388.908 269.116 388.908C216.983 388.908 174.72 346.645 174.72 294.512C174.72 242.378 216.983 200.116 269.116 200.116C318.885 200.116 359.658 238.631 363.254 287.481Z"
        stroke="url(#paint0_linear_380_14)" stroke-width="2" stroke-linecap="round" stroke-linejoin="round"
        stroke-dasharray="6 6" />
    <path
        d="M363.141 277.444C363.387 273.772 363.512 270.068 363.512 266.334C363.512 176.072 290.341 102.901 200.08 102.901C109.819 102.901 36.648 176.072 36.648 266.334C36.648 356.595 109.819 429.766 200.08 429.766C222.919 429.766 244.664 425.081 264.406 416.62C253.113 419.679 241.23 421.312 228.963 421.312C154.653 421.312 94.4127 361.388 94.4127 287.467C94.4127 213.546 154.653 153.622 228.963 153.622C299.883 153.622 357.988 208.205 363.141 277.444Z"
        stroke="url(#paint1_linear_380_14)" stroke-width="2" stroke-linecap="round" stroke-linejoin="round"
        stroke-dasharray="6 6" />
    <path
        d="M108.978 402.26C211.666 461.178 342.732 425.915 401.965 323.321C461.296 220.557 426.086 89.1524 323.321 29.8213C220.557 -29.5099 89.1524 5.69986 29.8213 108.464C-29.41 211.056 5.58159 342.191 107.946 401.664C19.0586 349.972 -11.3155 236.07 40.1347 146.956C91.6847 57.6689 205.856 27.0768 295.143 78.6268C384.43 130.177 415.022 244.348 363.472 333.635C312.021 422.751 198.189 453.397 108.978 402.26Z"
        stroke="url(#paint2_linear_380_14)" stroke-width="2" stroke-linecap="round" stroke-linejoin="round"
        stroke-dasharray="6 6" />
    <defs>
        <linearGradient id="paint0_linear_380_14" x1="361.5" y1="24" x2="84" y2="413" gradientUnits="userSpaceOnUse">
            <stop stop-color="#D0C2AE" />
            <stop offset="1" stop-color="#B69D9A" />
        </linearGradient>
        <linearGradient id="paint1_linear_380_14" x1="361.5" y1="24" x2="84" y2="413" gradientUnits="userSpaceOnUse">
            <stop stop-color="#D0C2AE" />
            <stop offset="1" stop-color="#B69D9A" />
        </linearGradient>
        <linearGradient id="paint2_linear_380_14" x1="361.5" y1="24" x2="84" y2="413" gradientUnits="userSpaceOnUse">
            <stop stop-color="#D0C2AE" />
            <stop offset="1" stop-color="#B69D9A" />
        </linearGradient>
    </defs>
</svg>